<?xml version="1.0" ?><!-- Uploaded to: SVG Repo, www.svgrepo.com, Generator: SVG Repo Mixer Tools -->
<svg width="800px" height="800px" viewBox="0 0 32 32" id="OBJECT" xmlns="http://www.w3.org/2000/svg"><defs><style>.cls-1{fill:#b2b2b2;}</style></defs><title/><path d="M25.22,9A42.8,42.8,0,0,0,6.78,9,1,1,0,0,0,6,10v6a1,1,0,0,0,.37.78,1,1,0,0,0,.85.2,40.63,40.63,0,0,1,17.56,0L25,17a1,1,0,0,0,1-1V10A1,1,0,0,0,25.22,9Z"/><path d="M26,1.1H22a1,1,0,0,0-1,1V5.93a1,1,0,0,0,1,1h4a1,1,0,0,0,1-1V2.07A1,1,0,0,0,26,1.1Z"/><path class="cls-1" d="M29.18,7.7a3,3,0,0,0-3-2.7H21.81a3,3,0,0,0-3,2.7L17,25.9a1,1,0,0,0,.26.77A1,1,0,0,0,18,27H30a1,1,0,0,0,.74-.33A1,1,0,0,0,31,25.9Z"/><ellipse cx="24" cy="26" rx="7" ry="5"/><path class="cls-1" d="M28,3H20a1,1,0,0,1,0-2h8a1,1,0,0,1,0,2Z"/><path d="M10,1.1H6a1,1,0,0,0-1,1V5.93a1,1,0,0,0,1,1h4a1,1,0,0,0,1-1V2.07A1,1,0,0,0,10,1.1Z"/><path class="cls-1" d="M13.18,7.7a3,3,0,0,0-3-2.7H5.81a3,3,0,0,0-3,2.7L1,25.9a1,1,0,0,0,.26.77A1,1,0,0,0,2,27H14a1,1,0,0,0,.74-.33A1,1,0,0,0,15,25.9Z"/><ellipse cx="8" cy="26" rx="7" ry="5"/><path class="cls-1" d="M12,3H4A1,1,0,0,1,4,1h8a1,1,0,0,1,0,2Z"/></svg>